<?xml version="1.0" encoding="UTF-8" standalone="no"?>
<!DOCTYPE svg PUBLIC "-//W3C//DTD SVG 1.1//EN"
 "http://www.w3.org/Graphics/SVG/1.1/DTD/svg11.dtd">
<!-- Generated by graphviz version 7.0.6 (20230106.0513)
 -->
<!-- Pages: 1 -->
<svg width="199pt" height="299pt"
 viewBox="0.00 0.00 199.09 299.20" xmlns="http://www.w3.org/2000/svg" xmlns:xlink="http://www.w3.org/1999/xlink">
<g id="graph0" class="graph" transform="scale(1 1) rotate(0) translate(4 295.2)">
<polygon fill="white" stroke="none" points="-4,4 -4,-295.2 195.09,-295.2 195.09,4 -4,4"/>
<!-- n3 -->
<g id="node1" class="node">
<title>n3</title>
<ellipse fill="black" stroke="black" cx="69.54" cy="-289.4" rx="1.8" ry="1.8"/>
</g>
<!-- n1 -->
<g id="node4" class="node">
<title>n1</title>
<ellipse fill="none" stroke="black" cx="69.54" cy="-232.6" rx="69.59" ry="18"/>
<text text-anchor="middle" x="69.54" y="-228.9" font-family="Times,serif" font-size="14.00">subcomponent 1</text>
</g>
<!-- n3&#45;&gt;n1 -->
<g id="edge1" class="edge">
<title>n3:s&#45;&gt;n1:n</title>
<path fill="none" stroke="black" d="M69.54,-287.6C69.54,-275.78 69.54,-270.33 69.54,-262.1"/>
<polygon fill="black" stroke="black" points="73.04,-262.11 69.54,-252.11 66.04,-262.11 73.04,-262.11"/>
<text text-anchor="middle" x="60.54" y="-276.4" font-family="Times,serif" font-size="14.00">in1</text>
</g>
<!-- n4 -->
<g id="node2" class="node">
<title>n4</title>
<ellipse fill="black" stroke="black" cx="181.54" cy="-145.6" rx="1.8" ry="1.8"/>
</g>
<!-- n2 -->
<g id="node5" class="node">
<title>n2</title>
<ellipse fill="none" stroke="black" cx="121.54" cy="-58.6" rx="69.59" ry="18"/>
<text text-anchor="middle" x="121.54" y="-54.9" font-family="Times,serif" font-size="14.00">subcomponent 2</text>
</g>
<!-- n4&#45;&gt;n2 -->
<g id="edge2" class="edge">
<title>n4:s&#45;&gt;n2:n</title>
<path fill="none" stroke="black" d="M181.54,-142.6C181.54,-117.2 168.66,-112.4 150.54,-94.6 143.78,-87.96 134.14,-88.51 127.87,-86.16"/>
<polygon fill="black" stroke="black" points="130.81,-84.27 122.38,-77.86 124.98,-88.13 130.81,-84.27"/>
<text text-anchor="middle" x="172.54" y="-131.4" font-family="Times,serif" font-size="14.00">in2</text>
</g>
<!-- n5 -->
<g id="node3" class="node">
<title>n5</title>
<ellipse fill="black" stroke="black" cx="121.54" cy="-1.8" rx="1.8" ry="1.8"/>
</g>
<!-- n1&#45;&gt;n2 -->
<g id="edge3" class="edge">
<title>n1&#45;&gt;n2</title>
<path fill="none" stroke="black" d="M67,-214.12C64.6,-193 62.69,-156.68 72.54,-127.6 77.83,-112 88.01,-96.91 97.74,-84.92"/>
<polygon fill="black" stroke="black" points="100.19,-87.44 104.01,-77.55 94.86,-82.9 100.19,-87.44"/>
</g>
<!-- n6 -->
<g id="node6" class="node">
<title>n6</title>
<g id="a_node6"><a xlink:href="subsystem2.svg" xlink:title="subsystem2">
<polygon fill="none" stroke="black" points="161.54,-163.6 85.54,-163.6 81.54,-159.6 81.54,-127.6 157.54,-127.6 161.54,-131.6 161.54,-163.6"/>
<polyline fill="none" stroke="black" points="157.54,-159.6 81.54,-159.6"/>
<polyline fill="none" stroke="black" points="157.54,-159.6 157.54,-127.6"/>
<polyline fill="none" stroke="black" points="157.54,-159.6 161.54,-163.6"/>
<text text-anchor="middle" x="121.54" y="-141.9" font-family="Times,serif" font-size="14.00">subsystem2</text>
</a>
</g>
</g>
<!-- n1&#45;&gt;n6 -->
<g id="edge4" class="edge">
<title>n1&#45;&gt;n6</title>
<path fill="none" stroke="black" d="M80.07,-214.4C87.21,-202.72 96.8,-187.05 104.96,-173.71"/>
<polygon fill="black" stroke="black" points="107.84,-175.72 110.07,-165.36 101.86,-172.06 107.84,-175.72"/>
<text text-anchor="middle" x="108.54" y="-185.4" font-family="Times,serif" font-size="14.00">in3</text>
</g>
<!-- n2&#45;&gt;n5 -->
<g id="edge5" class="edge">
<title>n2:s&#45;&gt;n5:n</title>
<path fill="none" stroke="black" d="M121.54,-40.6C121.54,-28.78 121.54,-23.33 121.54,-15.1"/>
<polygon fill="black" stroke="black" points="125.04,-15.11 121.54,-5.11 118.04,-15.11 125.04,-15.11"/>
<text text-anchor="middle" x="109.04" y="-7.4" font-family="Times,serif" font-size="14.00">out2</text>
</g>
<!-- n6&#45;&gt;n2 -->
<g id="edge6" class="edge">
<title>n6&#45;&gt;n2</title>
<path fill="none" stroke="black" d="M121.54,-127.4C121.54,-116.18 121.54,-101.27 121.54,-88.29"/>
<polygon fill="black" stroke="black" points="125.04,-88.58 121.54,-78.58 118.04,-88.58 125.04,-88.58"/>
<text text-anchor="middle" x="134.04" y="-98.4" font-family="Times,serif" font-size="14.00">out3</text>
</g>
</g>
</svg>
